<?xml version="1.0" standalone="no"?><!DOCTYPE svg PUBLIC "-//W3C//DTD SVG 1.1//EN" "http://www.w3.org/Graphics/SVG/1.1/DTD/svg11.dtd"><svg t="1672344571189" class="icon" viewBox="0 0 1024 1024" version="1.1" xmlns="http://www.w3.org/2000/svg" p-id="13189" xmlns:xlink="http://www.w3.org/1999/xlink" width="200" height="200"><path d="M507.733333 469.333333H938.666667v170.837334c0 23.296-19.2 42.496-42.666667 42.496s-42.666667-19.2-42.666667-42.496V554.666667h-85.333333v85.333333c0 23.466667-19.2 42.666667-42.666667 42.666667s-42.666667-19.2-42.666666-42.666667v-85.333333h-174.933334A213.418667 213.418667 0 0 1 85.333333 512a213.333333 213.333333 0 0 1 422.4-42.666667zM298.666667 640a128 128 0 1 0 0-256 128 128 0 0 0 0 256z" fill="#000000" p-id="13190"></path></svg>